<?xml version="1.0" encoding="utf-8"?>
<!-- Generator: Adobe Illustrator 17.1.0, SVG Export Plug-In . SVG Version: 6.00 Build 0)  -->
<!DOCTYPE svg PUBLIC "-//W3C//DTD SVG 1.1//EN" "http://www.w3.org/Graphics/SVG/1.1/DTD/svg11.dtd">
<svg version="1.1" id="Layer_9" xmlns="http://www.w3.org/2000/svg" xmlns:xlink="http://www.w3.org/1999/xlink" x="0px" y="0px"
	 viewBox="0 0 110 66" enable-background="new 0 0 110 66" xml:space="preserve">
<g>
	<g>
		<path fill="#FFFFFF" d="M108.2,53.1c0,0,0.1,0.1,0.1,0.1C108.2,53.1,108.2,53.1,108.2,53.1z"/>
	</g>
	<g>
		<path fill="#FFFFFF" d="M108,52.9c0,0.1,0.1,0.1,0.1,0.1C108.1,53,108.1,53,108,52.9z"/>
	</g>
	<g>
		<path fill="#FFFFFF" d="M108,52.9C108,52.9,108,52.9,108,52.9C108,52.9,108,52.9,108,52.9z"/>
	</g>
	<g>
		<path fill="#FFFFFF" d="M107.7,52.6c0.1,0.1,0.2,0.2,0.2,0.2C107.9,52.8,107.8,52.7,107.7,52.6z"/>
	</g>
	<g>
		<path fill="#FFFFFF" d="M107.7,52.6C107.7,52.6,107.7,52.6,107.7,52.6C107.7,52.6,107.7,52.6,107.7,52.6z"/>
	</g>
	<g>
		<path fill="#FFFFFF" d="M107.7,52.6C107.7,52.6,107.7,52.6,107.7,52.6C107.7,52.6,107.7,52.6,107.7,52.6z"/>
	</g>
	<g>
		<path fill="#FFFFFF" d="M108.3,53.2C108.3,53.2,108.3,53.2,108.3,53.2C108.3,53.2,108.3,53.2,108.3,53.2z"/>
	</g>
	<g>
		<path fill="#BEBEBE" d="M79.8,1c0.1,0,0.3,0,0.4,0l0.1,0c0.5,0.1,1,0.2,1.7,0.3c1.1,0.3,2.2,0.6,3.3,1.1C86.7,3,88,3.8,89.2,4.6
			c1.4,1,2.7,2.3,3.7,3.6c1.2,1.6,2.1,3.4,2.6,5.5c0.3,1.1,0.5,2.3,0.7,3.6c0,0.4,0.1,0.9,0.1,1.3c0,1.1-0.2,2.3-0.5,3.6
			c-0.4,2.1-1.2,4-2.1,5.8c-1.2,2.2-2.9,4.1-4.9,5.5l-1,0.7l0.9,0.8l0.5,0.5l0.8,0.8l1.5,1.5l1.8,1.8l1.8,1.8l1.9,1.9l2.2,2.2l2,2
			l1.8,1.8l1.7,1.7l1.1,1.1c0.1,0.1,0.3,0.2,0.4,0.4c0.2,0.2,0.5,0.5,0.7,0.7c0.7,0.7,1.3,1.6,1.6,2.6c0.8,2.3,0.2,5-1.4,6.8
			c-1.3,1.4-3.2,2.3-5.1,2.3c-0.4,0-0.9,0-1.3-0.1c-1.3-0.3-2.5-0.9-3.5-1.8l-0.2-0.2L97,62.7l-0.6-0.6l-1-1l-1.8-1.8l-0.9-0.9
			l-1.9-1.9l-1.7-1.7l-0.6-0.6l-3.5-3.5l-2.2-2.2L81,46.8L79.2,45l-2.1-2.1l-1.8-1.8l-1.4-1.4l-2.2-2.2l-0.5-0.5l-0.4-0.3l-1.1-1.1
			l-0.5,1.5l0,0.1L68.9,38l-0.5,1.5l-0.9,2.8L66.9,44l-0.6,1.9l-1.2,3.6l-1.7,5.2L63,55.8l-0.9,2.7l-0.3,1c-0.1,0.2-0.1,0.3-0.2,0.5
			c-0.1,0.3-0.2,0.5-0.3,0.8c-0.9,2.2-2.9,3.8-5.3,4.2C55.7,65,55.4,65,55,65c-1.1,0-2.1-0.2-3-0.7c-1.2-0.6-2.2-1.5-2.9-2.6
			c-0.3-0.5-0.5-1-0.8-1.5c-0.1-0.2-0.2-0.4-0.3-0.7l-1.5-3.1l-0.6-1.1l-1.3-2.6l-1.3-2.6l-1-2l-1.2-2.3l-0.8-1.5l-0.2-0.3l-0.9-1.7
			l-0.9,1.8l-1.1,2.3l-1.7,3.4l-0.6,1.2l-1,2.1l-1.5,3.1l-0.8,1.7l-1.2,2.4l-0.2,0.4c-0.4,0.8-0.8,1.6-1.3,2.3c-1,1.2-2.3,2-3.8,2.3
			c-0.5,0.1-1,0.2-1.5,0.2c-1,0-2-0.2-2.9-0.6c-1.3-0.6-2.4-1.7-3.1-2.9c-0.3-0.5-0.4-1-0.6-1.4l-0.2-0.6l-0.3-0.8L16,57.1l-0.4-1.2
			l-0.9-2.7L14.3,52l-0.8-2.5l-0.7-2.2l-0.5-1.4L11,42.1l-1.8-5.5L7.3,31l-0.7-2.1l-1-3.1l-0.5-1.4L4,21.1l-0.6-1.8l-0.7-2L2,15.1
			l-0.2-0.5l-0.1-0.4l-0.3-0.9c-0.6-1.8-0.5-3.7,0.3-5.4c1-2,3.1-3.5,5.3-3.7c0.3,0,0.5,0,0.8,0c1.1,0,2.2,0.3,3.2,0.8
			c1.2,0.6,2.2,1.7,2.9,2.9c0.3,0.5,0.5,1.1,0.7,1.7l0.1,0.2l1.1,3.2l0.7,2l0.9,2.7l0.4,1.1l1.4,4.3l1,3.1l0.8,2.3l1.2,3.6l0.4,1.2
			l0.4,1.3l0.7,2.1l0.2,0.7l0.2,0.6l0.8,2.3l1.1-2.2l0.3-0.7l0.7-1.4l1-2l1.4-2.8l1.4-2.9l1-2.1l0.3-0.6l1.1-2.1
			c1.1-2.2,3.5-3.7,6-3.8c0.1,0,0.1,0,0.2,0c1.4,0,2.8,0.5,4,1.3c0.6,0.4,1.1,1,1.6,1.6c0.3,0.4,0.5,0.7,0.7,1.2l0.2,0.5l1,2
			l1.6,3.3l0.8,1.6l2.4,4.8l0.3,0.7l0.7,1.5l1.1,2.1l0.8-2.3l0.3-0.8l0.3-0.8l0.7-2l0.6-1.7l1.6-4.9l0.9-2.5l1-2.9l1.4-4.3l0.4-1.1
			l0.6-1.9l0.9-2.8L64,9.5L64.2,9l0.1-0.4l0.1-0.4l0-0.1c0.3-0.5,0.7-1,1-1.4c0.9-1,1.9-1.9,3.1-2.7c1.7-1.1,3.6-1.9,5.6-2.4
			c1.2-0.3,2.6-0.5,4-0.5c0.4,0,0.7,0,1.1,0l0.3,0C79.6,1,79.7,1,79.8,1 M79.8,0c-0.2,0-0.4,0-0.6,0c-0.4,0-0.8,0-1.2,0
			c-1.4,0.1-2.8,0.3-4.1,0.6c-2.1,0.5-4.2,1.3-6,2.5c-1.2,0.8-2.4,1.8-3.3,2.9c-0.4,0.5-0.8,1-1.1,1.6c0,0.1-0.1,0.2-0.1,0.2
			c-0.1,0.3-0.2,0.6-0.3,0.8c-0.4,1.1-0.7,2.1-1.1,3.2c-0.5,1.5-1,3.1-1.5,4.6c-0.6,1.8-1.2,3.6-1.8,5.4c-0.6,1.8-1.2,3.7-1.8,5.5
			c-0.5,1.6-1.1,3.3-1.6,4.9c-0.4,1.2-0.8,2.4-1.2,3.6c-0.2,0.6-0.4,1.1-0.6,1.7c0,0,0,0,0,0c-0.4-0.7-0.7-1.4-1.1-2.2
			c-0.8-1.6-1.6-3.2-2.4-4.8c-0.8-1.6-1.6-3.3-2.4-4.9c-0.4-0.8-0.8-1.6-1.2-2.4c-0.2-0.5-0.5-0.9-0.8-1.3c-0.5-0.7-1.1-1.3-1.8-1.8
			c-1.3-1-2.9-1.5-4.6-1.5c-0.1,0-0.2,0-0.2,0c-2.9,0.1-5.5,1.8-6.8,4.4c-0.5,0.9-0.9,1.8-1.4,2.7c-0.8,1.6-1.6,3.3-2.5,4.9
			c-0.8,1.6-1.6,3.2-2.4,4.7c-0.3,0.7-0.7,1.4-1,2.1c-0.1-0.4-0.3-0.9-0.4-1.3c-0.4-1.1-0.8-2.3-1.1-3.4c-0.5-1.6-1.1-3.2-1.6-4.8
			c-0.6-1.8-1.2-3.6-1.8-5.5c-0.6-1.8-1.2-3.6-1.8-5.4c-0.5-1.6-1-3.1-1.6-4.7c-0.4-1.1-0.7-2.1-1.1-3.2c-0.2-0.7-0.5-1.4-0.8-2.1
			C14,5.9,12.9,4.8,11.5,4c-1.1-0.6-2.4-0.9-3.6-0.9c-0.3,0-0.6,0-0.9,0.1C4.3,3.5,2,5.1,0.8,7.5c-1,1.9-1.1,4.1-0.4,6.1
			c0.1,0.4,0.3,0.9,0.4,1.3c0.3,0.9,0.6,1.8,0.9,2.7c0.4,1.3,0.9,2.6,1.3,3.8c0.5,1.6,1,3.1,1.6,4.7c0.6,1.7,1.2,3.5,1.7,5.2
			C7,33.2,7.6,35,8.2,36.9c0.6,1.8,1.2,3.7,1.8,5.5c0.6,1.8,1.2,3.5,1.8,5.3c0.5,1.6,1,3.1,1.6,4.7c0.4,1.3,0.9,2.6,1.3,3.9
			c0.3,0.9,0.6,1.8,0.9,2.7c0.2,0.4,0.3,0.9,0.5,1.4c0.2,0.5,0.4,1.1,0.7,1.6c0.8,1.5,2.1,2.6,3.6,3.4c1,0.5,2.2,0.7,3.3,0.7
			c0.6,0,1.1-0.1,1.7-0.2c1.7-0.4,3.2-1.3,4.3-2.6c0.7-0.8,1.2-1.8,1.7-2.8c0.7-1.3,1.3-2.7,2-4c0.9-1.7,1.7-3.4,2.6-5.2
			c0.8-1.5,1.5-3.1,2.3-4.6c0.4-0.8,0.8-1.5,1.1-2.3c0,0,0,0,0,0c0.3,0.6,0.6,1.2,0.9,1.9c0.7,1.5,1.5,2.9,2.2,4.4
			c0.9,1.7,1.7,3.5,2.6,5.2c0.7,1.4,1.4,2.8,2.1,4.2c0.4,0.8,0.7,1.6,1.2,2.3c0.8,1.3,1.9,2.3,3.3,3c1.1,0.5,2.3,0.8,3.5,0.8
			c0.4,0,0.8,0,1.2-0.1c2.7-0.4,5-2.3,6-4.8c0.2-0.4,0.3-0.9,0.4-1.3c0.1-0.3,0.2-0.7,0.3-1c0.4-1.3,0.8-2.5,1.3-3.8
			c0.6-1.7,1.2-3.5,1.7-5.2c0.6-1.8,1.2-3.6,1.8-5.5c0.5-1.5,1-3,1.5-4.5c0.3-0.8,0.5-1.5,0.8-2.3c0,0,0-0.1,0-0.1
			c0.3,0.3,0.5,0.5,0.8,0.8c0.7,0.7,1.5,1.5,2.2,2.2c1.1,1.1,2.1,2.1,3.2,3.2c1.3,1.3,2.6,2.6,3.9,3.8c1.4,1.4,2.8,2.7,4.1,4.1
			c1.3,1.3,2.7,2.7,4,4c1.2,1.2,2.4,2.4,3.6,3.6c0.9,0.9,1.8,1.8,2.7,2.7c0.5,0.5,1,1,1.5,1.5c0.1,0.1,0.2,0.2,0.4,0.4
			c1.1,1.1,2.5,1.8,4,2.1c0.5,0.1,1,0.1,1.5,0.1c2.2,0,4.4-0.9,5.9-2.6c1.9-2.1,2.5-5.1,1.6-7.8c-0.4-1.1-1-2.2-1.9-3
			c-0.4-0.4-0.8-0.7-1.1-1.1c-1-0.9-1.9-1.9-2.9-2.8c-1.3-1.3-2.6-2.6-3.9-3.9c-1.4-1.4-2.7-2.7-4.1-4.1c-1.2-1.2-2.4-2.4-3.6-3.6
			c-0.8-0.8-1.5-1.5-2.3-2.3c-0.2-0.2-0.3-0.3-0.5-0.5c2.2-1.5,3.9-3.5,5.2-5.8c1-1.9,1.8-3.9,2.2-6c0.3-1.2,0.4-2.5,0.5-3.8
			c0-0.5,0-1-0.1-1.5c-0.1-1.3-0.3-2.5-0.7-3.7c-0.6-2.1-1.5-4.1-2.8-5.8c-1.1-1.5-2.4-2.8-3.9-3.9c-1.3-0.9-2.7-1.7-4.1-2.3
			c-1.1-0.5-2.3-0.8-3.4-1.1C81.6,0.2,81,0.1,80.4,0c0,0-0.1,0-0.1,0C80.2,0,80,0,79.8,0L79.8,0z"/>
	</g>
	<g>
		<path fill="#FFFFFF" d="M108.3,53.2C108.3,53.2,108.3,53.2,108.3,53.2L108.3,53.2z"/>
	</g>
	<g>
		<path fill="#FFFFFF" d="M108.3,53.2C108.3,53.2,108.3,53.2,108.3,53.2C108.3,53.2,108.3,53.2,108.3,53.2z"/>
	</g>
	<g>
		<path fill="#FFFFFF" d="M108.3,53.2C108.3,53.2,108.3,53.2,108.3,53.2C108.3,53.2,108.3,53.2,108.3,53.2z"/>
	</g>
</g>
</svg>
